<svg width="27" height="27" viewBox="0 0 27 27" fill="none" xmlns="http://www.w3.org/2000/svg">
<circle cx="13.5" cy="13.5" r="12.5" fill="white" stroke="#CACDD8" stroke-width="2"/>
<path d="M8.16274 19.9039H8.23745L11.6992 19.5884C12.0784 19.5506 12.4331 19.3836 12.7036 19.1152L20.175 11.6439C20.465 11.3375 20.6217 10.9287 20.6108 10.507C20.5999 10.0853 20.4223 9.68515 20.1169 9.39418L17.8423 7.11957C17.5454 6.84072 17.1564 6.68072 16.7492 6.67001C16.3421 6.65929 15.9452 6.79861 15.6341 7.06146L8.16274 14.5328C7.89441 14.8034 7.72733 15.1581 7.68955 15.5373L7.33259 18.999C7.32141 19.1206 7.33718 19.2431 7.3788 19.3579C7.42041 19.4727 7.48683 19.5769 7.57333 19.6631C7.6509 19.7401 7.7429 19.8009 7.84404 19.8422C7.94518 19.8836 8.05349 19.9045 8.16274 19.9039ZM16.6884 8.28178L18.9547 10.5481L17.2944 12.1669L15.0696 9.94208L16.6884 8.28178ZM9.30004 15.6784L13.9738 11.0379L16.2152 13.2793L11.5663 17.9281L9.0759 18.1605L9.30004 15.6784Z" fill="#A2A6B0"/>
</svg>
